<svg width="602.569458" height="259.500000" viewBox="0 0 602.569 259.5" fill="none" xmlns="http://www.w3.org/2000/svg" xmlns:xlink="http://www.w3.org/1999/xlink">
	<desc>
			Created with Pixso.
	</desc>
	<defs>
		<clipPath id="clip2_221">
			<rect id="Ellipse 8 (1)" width="474.000000" height="237.000000" transform="translate(60.641113 22.500000)" fill="white" fill-opacity="0"/>
		</clipPath>
		<clipPath id="clip2_226">
			<rect id="Ellipse 7" width="441.000000" height="237.000000" transform="translate(93.641113 22.500000)" fill="white" fill-opacity="0"/>
		</clipPath>
		<clipPath id="clip2_231">
			<rect id="Ellipse 6" width="356.000000" height="237.000000" transform="translate(178.641113 22.500000)" fill="white" fill-opacity="0"/>
		</clipPath>
		<clipPath id="clip2_236">
			<rect id="Ellipse 5" width="237.000000" height="237.000000" transform="translate(297.641113 22.500000)" fill="white" fill-opacity="0"/>
		</clipPath>
		<clipPath id="clip2_246">
			<rect id="зеленый" width="237.000000" height="119.000000" transform="translate(297.641113 140.500000)" fill="white" fill-opacity="0"/>
		</clipPath>
		<clipPath id="clip2_241">
			<rect id="Ellipse 4" width="237.000000" height="205.000000" transform="translate(297.641113 54.500000)" fill="white" fill-opacity="0"/>
		</clipPath>
		<clipPath id="clip2_300">
			<rect id="полоски" width="440.000000" height="235.000000" transform="translate(88.641113 23.500000)" fill="white" fill-opacity="0"/>
		</clipPath>
		<clipPath id="clip2_216">
			<rect id="фон" width="425.000000" height="214.000000" transform="translate(85.641113 45.500000)" fill="white" fill-opacity="0"/>
		</clipPath>
		<linearGradient x1="298.141113" y1="45.500000" x2="298.141113" y2="472.499939" id="paint_linear_2_218_0" gradientUnits="userSpaceOnUse">
			<stop stop-color="#84BD32"/>
			<stop offset="0.489583" stop-color="#FFFFFF"/>
		</linearGradient>
	</defs>
	<rect width="602.569458" height="259.500000" fill="#FFFFFF"/>
	<g clip-path="url(#clip2_221)">
		<mask id="mask2_224" mask-type="alpha" maskUnits="userSpaceOnUse" x="60.641113" y="22.500000" width="474.000000" height="237.000000">
			<path id="path" d="M534.64 259.5C534.64 228.37 528.51 197.55 516.59 168.8C504.69 140.05 487.23 113.92 465.22 91.91C443.21 69.9 417.09 52.45 388.33 40.54C359.58 28.63 328.76 22.5 297.64 22.5C266.51 22.5 235.69 28.63 206.94 40.54C178.19 52.45 152.06 69.9 130.05 91.91C108.04 113.92 90.59 140.05 78.68 168.8C66.77 197.55 60.64 228.37 60.64 259.5L297.64 259.5L534.64 259.5Z" fill="#FFFFFF" fill-opacity="1.000000" fill-rule="nonzero"/>
		</mask>
		<g mask="url(#mask2_224)">
			<path id="path" d="M534.64 259.5C534.64 228.37 528.51 197.55 516.59 168.8C504.69 140.05 487.23 113.92 465.22 91.91C443.21 69.9 417.09 52.45 388.33 40.54C359.58 28.63 328.76 22.5 297.64 22.5C266.51 22.5 235.69 28.63 206.94 40.54C178.19 52.45 152.06 69.9 130.05 91.91C108.04 113.92 90.59 140.05 78.68 168.8C66.77 197.55 60.64 228.37 60.64 259.5L297.64 259.5L534.64 259.5Z" fill="#FF0000" fill-opacity="1.000000" fill-rule="nonzero"/>
			<path id="path" d="M516.59 168.8C504.69 140.05 487.23 113.92 465.22 91.91C443.21 69.9 417.09 52.45 388.33 40.54C359.58 28.63 328.76 22.5 297.64 22.5C266.51 22.5 235.69 28.63 206.94 40.54C178.19 52.45 152.06 69.9 130.05 91.91C108.04 113.92 90.59 140.05 78.68 168.8C66.77 197.55 60.64 228.37 60.64 259.5L297.64 259.5L534.64 259.5C534.64 228.37 528.51 197.55 516.59 168.8Z" stroke="#FFFFFF" stroke-opacity="1.000000" stroke-width="10.000000"/>
		</g>
	</g>
	<g clip-path="url(#clip2_226)">
		<mask id="mask2_229" mask-type="alpha" maskUnits="userSpaceOnUse" x="93.645233" y="22.499939" width="440.995880" height="237.000061">
			<path id="path" d="M534.64 259.5C534.64 207.54 517.56 157.02 486.04 115.71C454.52 74.41 410.29 44.61 360.17 30.89C310.06 17.18 256.82 20.32 208.66 39.83C160.5 59.34 120.09 94.13 93.64 138.85L297.64 259.5L534.64 259.5Z" fill="#FFFFFF" fill-opacity="1.000000" fill-rule="nonzero"/>
		</mask>
		<g mask="url(#mask2_229)">
			<path id="path" d="M534.64 259.5C534.64 207.54 517.56 157.02 486.04 115.71C454.52 74.41 410.29 44.61 360.17 30.89C310.06 17.18 256.82 20.32 208.66 39.83C160.5 59.34 120.09 94.13 93.64 138.85L297.64 259.5L534.64 259.5Z" fill="#FF8888" fill-opacity="1.000000" fill-rule="nonzero"/>
			<path id="path" d="M486.04 115.71C454.52 74.41 410.29 44.61 360.17 30.89C310.06 17.18 256.82 20.32 208.66 39.83C160.5 59.34 120.09 94.13 93.64 138.85L297.64 259.5L534.64 259.5C534.64 207.54 517.56 157.02 486.04 115.71Z" stroke="#FFFFFF" stroke-opacity="1.000000" stroke-width="10.000000"/>
		</g>
	</g>
	<g clip-path="url(#clip2_231)">
		<mask id="mask2_234" mask-type="alpha" maskUnits="userSpaceOnUse" x="179.571259" y="22.500000" width="355.069855" height="237.000000">
			<path id="path" d="M534.64 259.5C534.64 217.94 523.71 177.11 502.95 141.1C482.19 105.1 452.32 75.19 416.35 54.37C380.38 33.55 339.57 22.56 298.01 22.5C256.45 22.43 215.6 33.29 179.57 54L297.64 259.5L534.64 259.5Z" fill="#FFFFFF" fill-opacity="1.000000" fill-rule="nonzero"/>
		</mask>
		<g mask="url(#mask2_234)">
			<path id="path" d="M534.64 259.5C534.64 217.94 523.71 177.11 502.95 141.1C482.19 105.1 452.32 75.19 416.35 54.37C380.38 33.55 339.57 22.56 298.01 22.5C256.45 22.43 215.6 33.29 179.57 54L297.64 259.5L534.64 259.5Z" fill="#FEE114" fill-opacity="1.000000" fill-rule="nonzero"/>
			<path id="path" d="M502.95 141.1C482.19 105.1 452.32 75.19 416.35 54.37C380.38 33.55 339.57 22.56 298.01 22.5C256.45 22.43 215.6 33.29 179.57 54L297.64 259.5L534.64 259.5C534.64 217.94 523.71 177.11 502.95 141.1Z" stroke="#FFFFFF" stroke-opacity="1.000000" stroke-width="10.000000"/>
		</g>
	</g>
	<g clip-path="url(#clip2_236)">
		<mask id="mask2_239" mask-type="alpha" maskUnits="userSpaceOnUse" x="297.641113" y="22.504684" width="237.000000" height="236.995316">
			<path id="path" d="M534.64 259.5C534.64 196.9 509.87 136.84 465.75 92.44C421.62 48.04 361.72 22.89 299.13 22.5L297.64 259.5L534.64 259.5Z" fill="#FFFFFF" fill-opacity="1.000000" fill-rule="nonzero"/>
		</mask>
		<g mask="url(#mask2_239)">
			<path id="path" d="M534.64 259.5C534.64 196.9 509.87 136.84 465.75 92.44C421.62 48.04 361.72 22.89 299.13 22.5L297.64 259.5L534.64 259.5Z" fill="#D1D80F" fill-opacity="1.000000" fill-rule="nonzero"/>
			<path id="path" d="M465.75 92.44C421.62 48.04 361.72 22.89 299.13 22.5L297.64 259.5L534.64 259.5C534.64 196.9 509.87 136.84 465.75 92.44Z" stroke="#FFFFFF" stroke-opacity="1.000000" stroke-width="10.000000"/>
		</g>
	</g>
	<g clip-path="url(#clip2_241)">
		<mask id="mask2_244" mask-type="alpha" maskUnits="userSpaceOnUse" x="297.641113" y="54.750153" width="237.000000" height="204.749847">
			<path id="path" d="M534.64 259.5C534.64 218.06 523.77 177.35 503.13 141.42C482.49 105.5 452.79 75.61 417 54.75L297.64 259.5L534.64 259.5Z" fill="#FFFFFF" fill-opacity="1.000000" fill-rule="nonzero"/>
		</mask>
		<g mask="url(#mask2_244)">
			<path id="path" d="M534.64 259.5C534.64 218.06 523.77 177.35 503.13 141.42C482.49 105.5 452.79 75.61 417 54.75L297.64 259.5L534.64 259.5Z" fill="#84BD32" fill-opacity="1.000000" fill-rule="nonzero"/>
			<path id="path" d="M503.13 141.42C482.49 105.5 452.79 75.61 417 54.75L297.64 259.5L534.64 259.5C534.64 218.06 523.77 177.35 503.13 141.42Z" stroke="#FFFFFF" stroke-opacity="1.000000" stroke-width="10.000000"/>
		</g>
		<g clip-path="url(#clip2_246)">
			<mask id="mask2_249" mask-type="alpha" maskUnits="userSpaceOnUse" x="297.641113" y="141.430115" width="237.000000" height="118.069878">
				<path id="path" d="M534.64 259.5C534.64 218.06 523.77 177.35 503.13 141.42L297.64 259.5L534.64 259.5Z" fill="#FFFFFF" fill-opacity="1.000000" fill-rule="nonzero"/>
			</mask>
			<g mask="url(#mask2_249)">
				<path id="path" d="M534.64 259.5C534.64 218.06 523.77 177.35 503.13 141.42L297.64 259.5L534.64 259.5Z" fill="#00A91A" fill-opacity="1.000000" fill-rule="nonzero"/>
				<path id="path" d="M503.13 141.42L297.64 259.5L534.64 259.5C534.64 218.06 523.77 177.35 503.13 141.42Z" stroke="#FFFFFF" stroke-opacity="1.000000" stroke-width="10.000000"/>
			</g>
		</g>
	</g>
	<g clip-path="url(#clip2_216)">
		<mask id="mask2_219" mask-type="alpha" maskUnits="userSpaceOnUse" x="85.641113" y="45.500000" width="425.000000" height="213.500000">
			<path id="path" d="M510.64 259C510.64 202.37 488.25 148.07 448.4 108.03C408.55 67.99 354.5 45.5 298.14 45.5C241.78 45.5 187.73 67.99 147.88 108.03C108.02 148.07 85.64 202.37 85.64 259L298.14 259L510.64 259Z" fill="#FFFFFF" fill-opacity="1.000000" fill-rule="nonzero"/>
		</mask>
		<g mask="url(#mask2_219)">
			<path id="path" d="M510.64 259C510.64 202.37 488.25 148.07 448.4 108.03C408.55 67.99 354.5 45.5 298.14 45.5C241.78 45.5 187.73 67.99 147.88 108.03C108.02 148.07 85.64 202.37 85.64 259L298.14 259L510.64 259Z" fill="url(#paint_linear_2_218_0)" fill-opacity="1.000000" fill-rule="nonzero"/>
			<path id="path" d="M448.4 108.03C408.55 67.99 354.5 45.5 298.14 45.5C241.78 45.5 187.73 67.99 147.88 108.03C108.02 148.07 85.64 202.37 85.64 259L298.14 259L510.64 259C510.64 202.37 488.25 148.07 448.4 108.03Z" stroke="#FFFFFF" stroke-opacity="1.000000" stroke-width="10.000000"/>
		</g>
		<g clip-path="url(#clip2_300)">
			<rect id="rect" x="89.556732" y="239.187439" width="13.944921" height="1.163811" fill="#FFFFFF" fill-opacity="1.000000"/>
			<rect id="rect" x="95.469543" y="198.066330" width="13.915975" height="1.166354" transform="rotate(16.0008 95.469543 198.066330)" fill="#FFFFFF" fill-opacity="1.000000"/>
			<rect id="rect" x="90.499512" y="225.199631" width="13.939198" height="1.164315" transform="rotate(7.03248 90.499512 225.199631)" fill="#FFFFFF" fill-opacity="1.000000"/>
			<rect id="rect" x="99.504547" y="184.876205" width="13.908654" height="1.166995" transform="rotate(17.9783 99.504547 184.876205)" fill="#FFFFFF" fill-opacity="1.000000"/>
			<rect id="rect" x="92.594604" y="210.868378" width="13.929325" height="1.165183" transform="rotate(11.6645 92.594604 210.868378)" fill="#FFFFFF" fill-opacity="1.000000"/>
			<rect id="rect" x="104.874237" y="171.348862" width="13.888660" height="1.168743" transform="rotate(22.6341 104.874237 171.348862)" fill="#FFFFFF" fill-opacity="1.000000"/>
			<rect id="rect" x="111.834595" y="158.058289" width="13.865097" height="1.170797" transform="rotate(27.3217 111.834595 158.058289)" fill="#FFFFFF" fill-opacity="1.000000"/>
			<rect id="rect" x="118.038391" y="147.634232" width="13.862420" height="1.171030" transform="rotate(27.8202 118.038391 147.634232)" fill="#FFFFFF" fill-opacity="1.000000"/>
			<rect id="rect" x="202.951706" y="69.578369" width="13.670531" height="1.187487" transform="rotate(59.3247 202.951706 69.578369)" fill="#FFFFFF" fill-opacity="1.000000"/>
			<rect id="rect" x="240.888062" y="54.787872" width="13.598326" height="1.193563" transform="rotate(76.0481 240.888062 54.787872)" fill="#FFFFFF" fill-opacity="1.000000"/>
			<rect id="rect" x="214.272552" y="64.169205" width="13.633487" height="1.190612" transform="rotate(66.6608 214.272552 64.169205)" fill="#FFFFFF" fill-opacity="1.000000"/>
			<rect id="rect" x="254.630371" y="51.584427" width="13.592750" height="1.194030" transform="rotate(78.1189 254.630371 51.584427)" fill="#FFFFFF" fill-opacity="1.000000"/>
			<rect id="rect" x="228.061462" y="58.763458" width="13.613406" height="1.192299" transform="rotate(71.507 228.061462 58.763458)" fill="#FFFFFF" fill-opacity="1.000000"/>
			<rect id="rect" x="269.350037" y="49.348083" width="13.583025" height="1.194842" transform="rotate(82.9905 269.350037 49.348083)" fill="#FFFFFF" fill-opacity="1.000000"/>
			<rect id="rect" x="284.652649" y="47.158997" width="13.578252" height="1.195240" transform="rotate(87.8854 284.652649 47.158997)" fill="#FFFFFF" fill-opacity="1.000000"/>
			<rect id="rect" x="297.028259" y="47.158997" width="13.578043" height="1.195258" transform="rotate(88.405 297.028259 47.158997)" fill="#FFFFFF" fill-opacity="1.000000"/>
			<rect id="rect" x="410.935577" y="80.038681" width="13.671812" height="1.187380" transform="rotate(120.904 410.935577 80.038681)" fill="#FFFFFF" fill-opacity="1.000000"/>
			<rect id="rect" x="444.445251" y="105.721451" width="13.773120" height="1.178747" transform="rotate(137.408 444.445251 105.721451)" fill="#FFFFFF" fill-opacity="1.000000"/>
			<rect id="rect" x="422.870331" y="87.879120" width="13.714719" height="1.183739" transform="rotate(128.196 422.870331 87.879120)" fill="#FFFFFF" fill-opacity="1.000000"/>
			<rect id="rect" x="454.125214" y="115.748810" width="13.785994" height="1.177641" transform="rotate(139.424 454.125214 115.748810)" fill="#FFFFFF" fill-opacity="1.000000"/>
			<rect id="rect" x="434.536743" y="96.853455" width="13.744697" height="1.181182" transform="rotate(132.968 434.536743 96.853455)" fill="#FFFFFF" fill-opacity="1.000000"/>
			<rect id="rect" x="463.425934" y="127.078918" width="13.815638" height="1.175085" transform="rotate(144.146 463.425934 127.078918)" fill="#FFFFFF" fill-opacity="1.000000"/>
			<rect id="rect" x="471.705353" y="139.633499" width="13.843873" height="1.172642" transform="rotate(148.866 471.705353 139.633499)" fill="#FFFFFF" fill-opacity="1.000000"/>
			<rect id="rect" x="477.827606" y="150.101135" width="13.846747" height="1.172392" transform="rotate(149.365 477.827606 150.101135)" fill="#FFFFFF" fill-opacity="1.000000"/>
			<rect id="rect" x="123.640747" y="138.995300" width="13.849645" height="1.172140" transform="rotate(30.1243 123.640747 138.995300)" fill="#FFFFFF" fill-opacity="1.000000"/>
			<rect id="rect" x="150.341522" y="106.619598" width="13.748467" height="1.180859" transform="rotate(46.44 150.341522 106.619598)" fill="#FFFFFF" fill-opacity="1.000000"/>
			<rect id="rect" x="131.803818" y="127.451233" width="13.806828" height="1.175845" transform="rotate(37.2736 131.803818 127.451233)" fill="#FFFFFF" fill-opacity="1.000000"/>
			<rect id="rect" x="160.735443" y="97.294922" width="13.735578" height="1.181960" transform="rotate(48.4667 160.735443 97.294922)" fill="#FFFFFF" fill-opacity="1.000000"/>
			<rect id="rect" x="141.134796" y="116.182251" width="13.776888" height="1.178423" transform="rotate(42.002 141.134796 116.182251)" fill="#FFFFFF" fill-opacity="1.000000"/>
			<rect id="rect" x="172.464111" y="88.352402" width="13.705895" height="1.184489" transform="rotate(53.2443 172.464111 88.352402)" fill="#FFFFFF" fill-opacity="1.000000"/>
			<rect id="rect" x="184.212173" y="79.357758" width="13.677599" height="1.186890" transform="rotate(58.0599 184.212173 79.357758)" fill="#FFFFFF" fill-opacity="1.000000"/>
			<rect id="rect" x="193.380005" y="73.926483" width="13.674722" height="1.187133" transform="rotate(58.5721 193.380005 73.926483)" fill="#FFFFFF" fill-opacity="1.000000"/>
			<rect id="rect" x="307.511902" y="47.908386" width="13.577841" height="1.195274" transform="rotate(90.8045 307.511902 47.908386)" fill="#FFFFFF" fill-opacity="1.000000"/>
			<rect id="rect" x="350.216614" y="54.097565" width="13.610264" height="1.192562" transform="rotate(107.63 350.216614 54.097565)" fill="#FFFFFF" fill-opacity="1.000000"/>
			<rect id="rect" x="321.866943" y="49.021301" width="13.584985" height="1.194678" transform="rotate(98.2175 321.866943 49.021301)" fill="#FFFFFF" fill-opacity="1.000000"/>
			<rect id="rect" x="363.028442" y="57.628204" width="13.618033" height="1.191912" transform="rotate(109.695 363.028442 57.628204)" fill="#FFFFFF" fill-opacity="1.000000"/>
			<rect id="rect" x="336.555847" y="51.252060" width="13.595896" height="1.193766" transform="rotate(103.087 336.555847 51.252060)" fill="#FFFFFF" fill-opacity="1.000000"/>
			<rect id="rect" x="376.809265" y="62.761139" width="13.639045" height="1.190146" transform="rotate(114.538 376.809265 62.761139)" fill="#FFFFFF" fill-opacity="1.000000"/>
			<rect id="rect" x="389.756042" y="68.666962" width="13.663511" height="1.188082" transform="rotate(119.382 389.756042 68.666962)" fill="#FFFFFF" fill-opacity="1.000000"/>
			<rect id="rect" x="401.019104" y="74.495010" width="13.666277" height="1.187848" transform="rotate(119.895 401.019104 74.495010)" fill="#FFFFFF" fill-opacity="1.000000"/>
			<rect id="rect" x="482.688507" y="159.158783" width="13.859660" height="1.171271" transform="rotate(151.67 482.688507 159.158783)" fill="#FFFFFF" fill-opacity="1.000000"/>
			<rect id="rect" x="497.967285" y="197.924149" width="13.927781" height="1.165319" transform="rotate(167.759 497.967285 197.924149)" fill="#FFFFFF" fill-opacity="1.000000"/>
			<rect id="rect" x="488.818756" y="171.843155" width="13.895082" height="1.168184" transform="rotate(158.769 488.818756 171.843155)" fill="#FFFFFF" fill-opacity="1.000000"/>
			<rect id="rect" x="501.009399" y="211.360840" width="13.932798" height="1.164878" transform="rotate(169.731 501.009399 211.360840)" fill="#FFFFFF" fill-opacity="1.000000"/>
			<rect id="rect" x="494.118561" y="185.366653" width="13.913914" height="1.166535" transform="rotate(163.421 494.118561 185.366653)" fill="#FFFFFF" fill-opacity="1.000000"/>
			<rect id="rect" x="503.038696" y="225.729568" width="13.941241" height="1.164136" transform="rotate(174.361 503.038696 225.729568)" fill="#FFFFFF" fill-opacity="1.000000"/>
			<rect id="rect" x="505.106598" y="240.143768" width="13.944819" height="1.163821" transform="rotate(179.004 505.106598 240.143768)" fill="#FFFFFF" fill-opacity="1.000000"/>
			<rect id="rect" x="505.187958" y="252.323410" width="13.944900" height="1.163814" transform="rotate(179.497 505.187958 252.323410)" fill="#FFFFFF" fill-opacity="1.000000"/>
		</g>
	</g>
	<path id="Могло быть лучше" d="M396.8 0.3C397.58 0.31 398.13 0.31 398.51 0L399.11 0.71C398.41 1.39 397.4 1.35 395.98 1.41C394.39 1.47 393.66 2.52 393.5 4.49L393.6 4.49C394.12 3.54 395.09 3.1 396.14 3.1C397.93 3.1 399.3 4.37 399.3 6.78C399.3 9.17 397.95 10.66 395.9 10.66C393.86 10.66 392.48 9.18 392.48 6.36L392.48 5.54C392.48 2.14 393.64 0.37 395.96 0.31C396.27 0.3 396.55 0.3 396.8 0.3ZM345.87 10.5L345.87 0.31L347.34 0.31L350.8 8.77L350.92 8.77L354.38 0.31L355.85 0.31L355.85 10.5L354.7 10.5L354.7 2.76L354.6 2.76L351.42 10.5L350.3 10.5L347.12 2.76L347.02 2.76L347.02 10.5L345.87 10.5ZM364.72 6.72C364.72 9.08 363.33 10.66 361.26 10.66C359.19 10.66 357.8 9.08 357.8 6.72C357.8 4.33 359.19 2.76 361.26 2.76C363.33 2.76 364.72 4.33 364.72 6.72ZM387.11 6.72C387.11 9.08 385.72 10.66 383.65 10.66C381.59 10.66 380.19 9.08 380.19 6.72C380.19 4.33 381.59 2.76 383.65 2.76C385.72 2.76 387.11 4.33 387.11 6.72ZM472.01 8.72C471.65 9.88 470.52 10.66 468.97 10.66C466.76 10.66 465.4 9.08 465.4 6.74C465.4 4.39 466.78 2.76 468.85 2.76C470.44 2.76 472.13 3.73 472.13 6.58L472.13 7.07L466.58 7.07C466.64 8.71 467.59 9.6 468.97 9.6C469.89 9.6 470.58 9.2 470.87 8.41L472.01 8.72ZM451.01 2.86L452.18 2.86L452.18 10.5L451.01 10.5L451.01 7.83C450.46 7.99 449.88 8.09 449.16 8.09C447.43 8.09 446.3 7.16 446.3 5.29L446.3 2.84L447.47 2.84L447.47 5.29C447.47 6.46 448.21 7 449.16 7C449.86 7 450.44 6.9 451.01 6.73L451.01 2.86ZM366.51 2.86L371.22 2.86L371.22 3.95L367.68 3.95L367.68 10.5L366.51 10.5L366.51 2.86ZM372.02 10.5L371.62 10.5L371.62 9.4L371.9 9.4C372.81 9.4 373.07 8.8 373.17 6.24L373.31 2.86L378.4 2.86L378.4 10.5L377.23 10.5L377.23 3.95L374.43 3.95L374.31 6.68C374.2 9.18 373.71 10.5 372.02 10.5ZM402.27 2.86L402.27 5.62L404.3 5.62C406.09 5.62 407.06 6.64 407.06 8.03C407.06 9.4 406.09 10.5 404.3 10.5L401.09 10.5L401.09 2.86L402.27 2.86ZM409.45 10.5L408.27 10.5L408.27 2.86L409.45 2.86L409.45 10.5ZM413.68 3.95L411.16 3.95L411.16 2.86L417.36 2.86L417.36 3.95L414.85 3.95L414.85 10.5L413.68 10.5L413.68 3.95ZM420.24 2.86L420.24 5.62L422.27 5.62C424.06 5.62 425.04 6.64 425.04 8.03C425.04 9.4 424.06 10.5 422.27 10.5L419.07 10.5L419.07 2.86L420.24 2.86ZM430.49 10.5L430.09 10.5L430.09 9.4L430.37 9.4C431.28 9.4 431.54 8.8 431.64 6.24L431.78 2.86L436.87 2.86L436.87 10.5L435.7 10.5L435.7 3.95L432.89 3.95L432.77 6.68C432.66 9.18 432.18 10.5 430.49 10.5ZM441.74 11.61C441.3 12.8 440.55 13.36 439.49 13.36C439.1 13.36 438.76 13.28 438.64 13.22L438.94 12.19C439.79 12.41 440.32 12.3 440.75 11.13L440.97 10.54L438.14 2.86L439.42 2.86L441.52 8.94L441.6 8.94L443.71 2.86L444.98 2.86L441.74 11.61ZM454.33 10.5L454.33 2.86L455.5 2.86L455.5 9.4L458.39 9.4L458.39 2.86L459.56 2.86L459.56 9.4L462.44 9.4L462.44 2.86L463.62 2.86L463.62 10.5L454.33 10.5ZM358.98 6.72C358.98 8.25 359.69 9.6 361.26 9.6C362.83 9.6 363.55 8.25 363.55 6.72C363.55 5.19 362.83 3.81 361.26 3.81C359.69 3.81 358.98 5.19 358.98 6.72ZM381.37 6.72C381.37 8.25 382.08 9.6 383.65 9.6C385.22 9.6 385.94 8.25 385.94 6.72C385.94 5.19 385.22 3.81 383.65 3.81C382.08 3.81 381.37 5.19 381.37 6.72ZM468.85 3.81C467.5 3.81 466.66 4.87 466.58 6.06L470.94 6.06C470.94 4.77 470.12 3.81 468.85 3.81ZM393.66 6.78C393.66 8.49 394.51 9.6 395.9 9.6C397.29 9.6 398.13 8.5 398.13 6.78C398.13 5.1 397.28 4.15 395.88 4.15C394.52 4.15 393.68 5.1 393.66 6.78ZM404.3 6.72L402.27 6.72L402.27 9.4L404.3 9.4C405.23 9.4 405.89 8.86 405.89 8.09C405.89 7.28 405.23 6.72 404.3 6.72ZM422.27 6.72L420.24 6.72L420.24 9.4L422.27 9.4C423.2 9.4 423.86 8.86 423.86 8.09C423.86 7.28 423.2 6.72 422.27 6.72Z" fill="#000000" fill-opacity="1.000000" fill-rule="evenodd"/>
	<path id="Хорошо" d="M487.02 80.31L488.47 80.31L491.09 84.55L491.17 84.55L493.8 80.31L495.25 80.31L492.05 85.41L495.25 90.5L493.8 90.5L491.17 86.34L491.09 86.34L488.47 90.5L487.02 90.5L490.3 85.41L487.02 80.31ZM502.86 86.72C502.86 89.08 501.47 90.66 499.4 90.66C497.34 90.66 495.94 89.08 495.94 86.72C495.94 84.33 497.34 82.76 499.4 82.76C501.47 82.76 502.86 84.33 502.86 86.72ZM505.83 93.36L504.65 93.36L504.65 82.86L505.79 82.86L505.79 84.07L505.93 84.07C506.18 83.67 506.64 82.76 508.13 82.76C510.06 82.76 511.4 84.29 511.4 86.7C511.4 89.12 510.06 90.66 508.15 90.66C506.68 90.66 506.18 89.74 505.93 89.32L505.83 89.32L505.83 93.36ZM519.75 86.72C519.75 89.08 518.36 90.66 516.29 90.66C514.22 90.66 512.83 89.08 512.83 86.72C512.83 84.33 514.22 82.76 516.29 82.76C518.36 82.76 519.75 84.33 519.75 86.72ZM539.53 86.72C539.53 89.08 538.14 90.66 536.07 90.66C534.01 90.66 532.61 89.08 532.61 86.72C532.61 84.33 534.01 82.76 536.07 82.76C538.14 82.76 539.53 84.33 539.53 86.72ZM521.54 90.5L521.54 82.86L522.71 82.86L522.71 89.4L525.59 89.4L525.59 82.86L526.77 82.86L526.77 89.4L529.65 89.4L529.65 82.86L530.82 82.86L530.82 90.5L521.54 90.5ZM497.12 86.72C497.12 88.25 497.83 89.6 499.4 89.6C500.97 89.6 501.69 88.25 501.69 86.72C501.69 85.19 500.97 83.81 499.4 83.81C497.83 83.81 497.12 85.19 497.12 86.72ZM508 83.81C506.56 83.81 505.81 84.97 505.81 86.68C505.81 88.41 506.58 89.6 508 89.6C509.47 89.6 510.22 88.31 510.22 86.68C510.22 85.07 509.49 83.81 508 83.81ZM514 86.72C514 88.25 514.71 89.6 516.29 89.6C517.86 89.6 518.57 88.25 518.57 86.72C518.57 85.19 517.86 83.81 516.29 83.81C514.71 83.81 514 85.19 514 86.72ZM533.79 86.72C533.79 88.25 534.5 89.6 536.07 89.6C537.64 89.6 538.36 88.25 538.36 86.72C538.36 85.19 537.64 83.81 536.07 83.81C534.5 83.81 533.79 85.19 533.79 86.72Z" fill="#000000" fill-opacity="1.000000" fill-rule="evenodd"/>
	<path id="Отлично" d="M549.96 193.17C552.57 193.17 554.46 195.18 554.46 198.41C554.46 201.63 552.57 203.64 549.96 203.64C547.36 203.64 545.47 201.63 545.47 198.41C545.47 195.18 547.36 193.17 549.96 193.17ZM549.96 202.48C551.81 202.48 553.27 201.05 553.27 198.41C553.27 195.76 551.81 194.33 549.96 194.33C548.12 194.33 546.66 195.76 546.66 198.41C546.66 201.05 548.12 202.48 549.96 202.48ZM602.56 199.72C602.56 202.08 601.17 203.66 599.11 203.66C597.04 203.66 595.64 202.08 595.64 199.72C595.64 197.33 597.04 195.76 599.11 195.76C601.17 195.76 602.56 197.33 602.56 199.72ZM584.53 195.86L585.7 195.86L585.7 203.5L584.53 203.5L584.53 200.83C583.98 200.99 583.4 201.09 582.68 201.09C580.95 201.09 579.81 200.16 579.81 198.29L579.81 195.84L580.99 195.84L580.99 198.29C580.99 199.46 581.73 200 582.68 200C583.38 200 583.96 199.9 584.53 199.73L584.53 195.86ZM558.46 196.95L555.93 196.95L555.93 195.86L562.14 195.86L562.14 196.95L559.63 196.95L559.63 203.5L558.46 203.5L558.46 196.95ZM562.93 203.5L562.53 203.5L562.53 202.4L562.81 202.4C563.73 202.4 563.99 201.8 564.08 199.24L564.22 195.86L569.31 195.86L569.31 203.5L568.14 203.5L568.14 196.95L565.34 196.95L565.22 199.68C565.11 202.18 564.62 203.5 562.93 203.5ZM572.64 195.86L572.64 201.77L576.32 195.86L577.67 195.86L577.67 203.5L576.49 203.5L576.49 197.59L572.84 203.5L571.46 203.5L571.46 195.86L572.64 195.86ZM587.85 195.86L589.02 195.86L589.02 199.14L592.68 199.14L592.68 195.86L593.85 195.86L593.85 203.5L592.68 203.5L592.68 200.23L589.02 200.23L589.02 203.5L587.85 203.5L587.85 195.86ZM596.82 199.72C596.82 201.25 597.53 202.6 599.11 202.6C600.67 202.6 601.39 201.25 601.39 199.72C601.39 198.19 600.67 196.81 599.11 196.81C597.53 196.81 596.82 198.19 596.82 199.72Z" fill="#000000" fill-opacity="1.000000" fill-rule="evenodd"/>
	<path id="Плохо" d="M67.89 77.31L75.49 77.31L75.49 87.5L74.25 87.5L74.25 78.41L69.12 78.41L69.12 87.5L67.89 87.5L67.89 77.31ZM92.63 83.72C92.63 86.08 91.24 87.66 89.17 87.66C87.1 87.66 85.71 86.08 85.71 83.72C85.71 81.33 87.1 79.76 89.17 79.76C91.24 79.76 92.63 81.33 92.63 83.72ZM107.9 83.72C107.9 86.08 106.51 87.66 104.44 87.66C102.37 87.66 100.98 86.08 100.98 83.72C100.98 81.33 102.37 79.76 104.44 79.76C106.51 79.76 107.9 81.33 107.9 83.72ZM77.53 87.5L77.13 87.5L77.13 86.4L77.42 86.4C78.33 86.4 78.59 85.8 78.69 83.24L78.83 79.86L83.92 79.86L83.92 87.5L82.74 87.5L82.74 80.95L79.94 80.95L79.82 83.68C79.71 86.18 79.22 87.5 77.53 87.5ZM93.62 79.86L94.97 79.86L96.8 82.98L98.63 79.86L99.98 79.86L97.52 83.68L99.98 87.5L98.63 87.5L96.8 84.53L94.97 87.5L93.62 87.5L96.05 83.68L93.62 79.86ZM86.88 83.72C86.88 85.25 87.6 86.6 89.17 86.6C90.74 86.6 91.45 85.25 91.45 83.72C91.45 82.19 90.74 80.81 89.17 80.81C87.6 80.81 86.88 82.19 86.88 83.72ZM102.15 83.72C102.15 85.25 102.87 86.6 104.44 86.6C106.01 86.6 106.73 85.25 106.73 83.72C106.73 82.19 106.01 80.81 104.44 80.81C102.87 80.81 102.15 82.19 102.15 83.72Z" fill="#000000" fill-opacity="1.000000" fill-rule="evenodd"/>
	<path id="Ахтунг" d="M2.31 199.61L1.29 202.5L0 202.5L3.73 192.31L5.01 192.31L8.75 202.5L7.45 202.5L6.43 199.61L2.31 199.61ZM4.33 193.92L2.7 198.52L6.04 198.52L4.41 193.92L4.33 193.92ZM9.7 194.86L11.05 194.86L12.88 197.98L14.71 194.86L16.06 194.86L13.6 198.68L16.06 202.5L14.71 202.5L12.88 199.53L11.05 202.5L9.7 202.5L12.12 198.68L9.7 194.86ZM19.82 195.95L17.29 195.95L17.29 194.86L23.5 194.86L23.5 195.95L20.99 195.95L20.99 202.5L19.82 202.5L19.82 195.95ZM28.21 203.61C27.77 204.8 27.02 205.36 25.96 205.36C25.57 205.36 25.23 205.28 25.11 205.22L25.41 204.19C26.27 204.41 26.79 204.3 27.22 203.13L27.44 202.54L24.61 194.86L25.89 194.86L28 200.94L28.07 200.94L30.18 194.86L31.45 194.86L28.21 203.61ZM33 194.86L34.18 194.86L34.18 198.14L37.84 198.14L37.84 194.86L39.01 194.86L39.01 202.5L37.84 202.5L37.84 199.23L34.18 199.23L34.18 202.5L33 202.5L33 194.86ZM41.16 194.86L45.87 194.86L45.87 195.95L42.33 195.95L42.33 202.5L41.16 202.5L41.16 194.86Z" fill="#000000" fill-opacity="1.000000" fill-rule="evenodd"/>
	<path id="Не хорошо" d="M181.1 10.5L179.87 10.5L179.87 0.31L181.1 0.31L181.1 4.85L186.53 4.85L186.53 0.31L187.77 0.31L187.77 10.5L186.53 10.5L186.53 5.94L181.1 5.94L181.1 10.5ZM196.32 8.72C195.96 9.88 194.83 10.66 193.27 10.66C191.07 10.66 189.71 9.08 189.71 6.74C189.71 4.39 191.09 2.76 193.15 2.76C194.74 2.76 196.43 3.73 196.43 6.58L196.43 7.07L190.89 7.07C190.95 8.71 191.9 9.6 193.27 9.6C194.19 9.6 194.88 9.2 195.18 8.41L196.32 8.72ZM215.96 6.72C215.96 9.08 214.57 10.66 212.5 10.66C210.44 10.66 209.04 9.08 209.04 6.72C209.04 4.33 210.44 2.76 212.5 2.76C214.57 2.76 215.96 4.33 215.96 6.72ZM218.92 13.36L217.75 13.36L217.75 2.86L218.89 2.86L218.89 4.07L219.03 4.07C219.28 3.67 219.74 2.76 221.23 2.76C223.16 2.76 224.5 4.29 224.5 6.7C224.5 9.12 223.16 10.66 221.25 10.66C219.78 10.66 219.28 9.74 219.03 9.32L218.92 9.32L218.92 13.36ZM232.85 6.72C232.85 9.08 231.46 10.66 229.39 10.66C227.32 10.66 225.92 9.08 225.92 6.72C225.92 4.33 227.32 2.76 229.39 2.76C231.46 2.76 232.85 4.33 232.85 6.72ZM252.63 6.72C252.63 9.08 251.24 10.66 249.17 10.66C247.11 10.66 245.71 9.08 245.71 6.72C245.71 4.33 247.11 2.76 249.17 2.76C251.24 2.76 252.63 4.33 252.63 6.72ZM201.69 2.86L203.04 2.86L204.87 5.98L206.7 2.86L208.05 2.86L205.58 6.68L208.05 10.5L206.7 10.5L204.87 7.53L203.04 10.5L201.69 10.5L204.11 6.68L201.69 2.86ZM234.64 10.5L234.64 2.86L235.81 2.86L235.81 9.4L238.69 9.4L238.69 2.86L239.87 2.86L239.87 9.4L242.75 9.4L242.75 2.86L243.92 2.86L243.92 10.5L234.64 10.5ZM193.15 3.81C191.81 3.81 190.97 4.87 190.89 6.06L195.24 6.06C195.24 4.77 194.43 3.81 193.15 3.81ZM210.22 6.72C210.22 8.25 210.93 9.6 212.5 9.6C214.07 9.6 214.79 8.25 214.79 6.72C214.79 5.19 214.07 3.81 212.5 3.81C210.93 3.81 210.22 5.19 210.22 6.72ZM221.1 3.81C219.66 3.81 218.91 4.97 218.91 6.68C218.91 8.41 219.68 9.6 221.1 9.6C222.56 9.6 223.32 8.31 223.32 6.68C223.32 5.07 222.59 3.81 221.1 3.81ZM227.1 6.72C227.1 8.25 227.81 9.6 229.39 9.6C230.96 9.6 231.67 8.25 231.67 6.72C231.67 5.19 230.96 3.81 229.39 3.81C227.81 3.81 227.1 5.19 227.1 6.72ZM246.89 6.72C246.89 8.25 247.6 9.6 249.17 9.6C250.74 9.6 251.46 8.25 251.46 6.72C251.46 5.19 250.74 3.81 249.17 3.81C247.6 3.81 246.89 5.19 246.89 6.72Z" fill="#000000" fill-opacity="1.000000" fill-rule="evenodd"/>
</svg>
