<svg width="634.461060" height="259.271484" viewBox="0 0 634.461 259.271" fill="none" xmlns="http://www.w3.org/2000/svg" xmlns:xlink="http://www.w3.org/1999/xlink">
	<desc>
			Created with Pixso.
	</desc>
	<defs>
		<clipPath id="clip2_221">
			<rect id="Ellipse 8 (1)" width="474.000000" height="237.000000" transform="translate(70.538574 22.271484)" fill="white" fill-opacity="0"/>
		</clipPath>
		<clipPath id="clip2_226">
			<rect id="Ellipse 7" width="441.000000" height="237.000000" transform="translate(103.538574 22.271484)" fill="white" fill-opacity="0"/>
		</clipPath>
		<clipPath id="clip2_231">
			<rect id="Ellipse 6" width="356.000000" height="237.000000" transform="translate(188.538574 22.271484)" fill="white" fill-opacity="0"/>
		</clipPath>
		<clipPath id="clip2_236">
			<rect id="Ellipse 5" width="237.000000" height="237.000000" transform="translate(307.538574 22.271484)" fill="white" fill-opacity="0"/>
		</clipPath>
		<clipPath id="clip2_246">
			<rect id="зеленый" width="237.000000" height="119.000000" transform="translate(307.538574 140.271484)" fill="white" fill-opacity="0"/>
		</clipPath>
		<clipPath id="clip2_241">
			<rect id="Ellipse 4" width="237.000000" height="205.000000" transform="translate(307.538574 54.271484)" fill="white" fill-opacity="0"/>
		</clipPath>
		<clipPath id="clip2_300">
			<rect id="полоски" width="440.000000" height="235.000000" transform="translate(98.538574 23.271484)" fill="white" fill-opacity="0"/>
		</clipPath>
		<clipPath id="clip2_216">
			<rect id="фон" width="425.000000" height="214.000000" transform="translate(95.538574 45.271484)" fill="white" fill-opacity="0"/>
		</clipPath>
		<linearGradient x1="308.038574" y1="45.271484" x2="308.038574" y2="472.271423" id="paint_linear_2_218_0" gradientUnits="userSpaceOnUse">
			<stop stop-color="#FFFFFF"/>
			<stop offset="0.489583" stop-color="#FFFFFF"/>
		</linearGradient>
	</defs>
	<rect width="634.461060" height="259.271484" fill="#FFFFFF"/>
	<g clip-path="url(#clip2_221)">
		<mask id="mask2_224" mask-type="alpha" maskUnits="userSpaceOnUse" x="70.538574" y="22.271484" width="474.000000" height="237.000000">
			<path id="path" d="M544.53 259.27C544.53 228.14 538.4 197.32 526.49 168.57C514.58 139.82 497.13 113.69 475.12 91.68C453.11 69.67 426.98 52.22 398.23 40.31C369.48 28.4 338.66 22.27 307.53 22.27C276.41 22.27 245.59 28.4 216.84 40.31C188.08 52.22 161.96 69.67 139.95 91.68C117.94 113.69 100.48 139.82 88.57 168.57C76.66 197.32 70.53 228.14 70.53 259.27L307.53 259.27L544.53 259.27Z" fill="#FFFFFF" fill-opacity="1.000000" fill-rule="nonzero"/>
		</mask>
		<g mask="url(#mask2_224)">
			<path id="path" d="M544.53 259.27C544.53 228.14 538.4 197.32 526.49 168.57C514.58 139.82 497.13 113.69 475.12 91.68C453.11 69.67 426.98 52.22 398.23 40.31C369.48 28.4 338.66 22.27 307.53 22.27C276.41 22.27 245.59 28.4 216.84 40.31C188.08 52.22 161.96 69.67 139.95 91.68C117.94 113.69 100.48 139.82 88.57 168.57C76.66 197.32 70.53 228.14 70.53 259.27L307.53 259.27L544.53 259.27Z" fill="#FF0000" fill-opacity="1.000000" fill-rule="nonzero"/>
			<path id="path" d="M526.49 168.57C514.58 139.82 497.13 113.69 475.12 91.68C453.11 69.67 426.98 52.22 398.23 40.31C369.48 28.4 338.66 22.27 307.53 22.27C276.41 22.27 245.59 28.4 216.84 40.31C188.08 52.22 161.96 69.67 139.95 91.68C117.94 113.69 100.48 139.82 88.57 168.57C76.66 197.32 70.53 228.14 70.53 259.27L307.53 259.27L544.53 259.27C544.53 228.14 538.4 197.32 526.49 168.57Z" stroke="#FFFFFF" stroke-opacity="1.000000" stroke-width="10.000000"/>
		</g>
	</g>
	<g clip-path="url(#clip2_226)">
		<mask id="mask2_229" mask-type="alpha" maskUnits="userSpaceOnUse" x="103.542694" y="22.271423" width="440.995880" height="237.000061">
			<path id="path" d="M544.53 259.27C544.53 207.31 527.46 156.79 495.94 115.48C464.41 74.18 420.19 44.38 370.07 30.67C319.95 16.96 266.72 20.1 218.56 39.6C170.4 59.11 129.99 93.9 103.54 138.62L307.53 259.27L544.53 259.27Z" fill="#FFFFFF" fill-opacity="1.000000" fill-rule="nonzero"/>
		</mask>
		<g mask="url(#mask2_229)">
			<path id="path" d="M544.53 259.27C544.53 207.31 527.46 156.79 495.94 115.48C464.41 74.18 420.19 44.38 370.07 30.67C319.95 16.96 266.72 20.1 218.56 39.6C170.4 59.11 129.99 93.9 103.54 138.62L307.53 259.27L544.53 259.27Z" fill="#FF8888" fill-opacity="1.000000" fill-rule="nonzero"/>
			<path id="path" d="M495.94 115.48C464.41 74.18 420.19 44.38 370.07 30.67C319.95 16.96 266.72 20.1 218.56 39.6C170.4 59.11 129.99 93.9 103.54 138.62L307.53 259.27L544.53 259.27C544.53 207.31 527.46 156.79 495.94 115.48Z" stroke="#FFFFFF" stroke-opacity="1.000000" stroke-width="10.000000"/>
		</g>
	</g>
	<g clip-path="url(#clip2_231)">
		<mask id="mask2_234" mask-type="alpha" maskUnits="userSpaceOnUse" x="189.468719" y="22.271484" width="355.069855" height="237.000000">
			<path id="path" d="M544.53 259.27C544.53 217.71 533.61 176.88 512.84 140.87C492.08 104.87 462.22 74.96 426.25 54.14C390.28 33.33 349.47 22.33 307.91 22.27C266.35 22.2 225.5 33.07 189.46 53.77L307.53 259.27L544.53 259.27Z" fill="#FFFFFF" fill-opacity="1.000000" fill-rule="nonzero"/>
		</mask>
		<g mask="url(#mask2_234)">
			<path id="path" d="M544.53 259.27C544.53 217.71 533.61 176.88 512.84 140.87C492.08 104.87 462.22 74.96 426.25 54.14C390.28 33.33 349.47 22.33 307.91 22.27C266.35 22.2 225.5 33.07 189.46 53.77L307.53 259.27L544.53 259.27Z" fill="#FEE114" fill-opacity="1.000000" fill-rule="nonzero"/>
			<path id="path" d="M512.84 140.87C492.08 104.87 462.22 74.96 426.25 54.14C390.28 33.33 349.47 22.33 307.91 22.27C266.35 22.2 225.5 33.07 189.46 53.77L307.53 259.27L544.53 259.27C544.53 217.71 533.61 176.88 512.84 140.87Z" stroke="#FFFFFF" stroke-opacity="1.000000" stroke-width="10.000000"/>
		</g>
	</g>
	<g clip-path="url(#clip2_236)">
		<mask id="mask2_239" mask-type="alpha" maskUnits="userSpaceOnUse" x="307.538574" y="22.276169" width="237.000000" height="236.995316">
			<path id="path" d="M544.53 259.27C544.53 196.67 519.77 136.61 475.64 92.21C431.52 47.81 371.62 22.66 309.02 22.27L307.53 259.27L544.53 259.27Z" fill="#FFFFFF" fill-opacity="1.000000" fill-rule="nonzero"/>
		</mask>
		<g mask="url(#mask2_239)">
			<path id="path" d="M544.53 259.27C544.53 196.67 519.77 136.61 475.64 92.21C431.52 47.81 371.62 22.66 309.02 22.27L307.53 259.27L544.53 259.27Z" fill="#D1D80F" fill-opacity="1.000000" fill-rule="nonzero"/>
			<path id="path" d="M475.64 92.21C431.52 47.81 371.62 22.66 309.02 22.27L307.53 259.27L544.53 259.27C544.53 196.67 519.77 136.61 475.64 92.21Z" stroke="#FFFFFF" stroke-opacity="1.000000" stroke-width="10.000000"/>
		</g>
	</g>
	<g clip-path="url(#clip2_241)">
		<mask id="mask2_244" mask-type="alpha" maskUnits="userSpaceOnUse" x="307.538574" y="54.521637" width="237.000000" height="204.749847">
			<path id="path" d="M544.53 259.27C544.53 217.83 533.67 177.12 513.03 141.2C492.39 105.27 462.69 75.38 426.89 54.52L307.53 259.27L544.53 259.27Z" fill="#FFFFFF" fill-opacity="1.000000" fill-rule="nonzero"/>
		</mask>
		<g mask="url(#mask2_244)">
			<path id="path" d="M544.53 259.27C544.53 217.83 533.67 177.12 513.03 141.2C492.39 105.27 462.69 75.38 426.89 54.52L307.53 259.27L544.53 259.27Z" fill="#84BD32" fill-opacity="1.000000" fill-rule="nonzero"/>
			<path id="path" d="M513.03 141.2C492.39 105.27 462.69 75.38 426.89 54.52L307.53 259.27L544.53 259.27C544.53 217.83 533.67 177.12 513.03 141.2Z" stroke="#FFFFFF" stroke-opacity="1.000000" stroke-width="10.000000"/>
		</g>
		<g clip-path="url(#clip2_246)">
			<mask id="mask2_249" mask-type="alpha" maskUnits="userSpaceOnUse" x="307.538574" y="141.201599" width="237.000000" height="118.069878">
				<path id="path" d="M544.53 259.27C544.53 217.83 533.67 177.12 513.03 141.2L307.53 259.27L544.53 259.27Z" fill="#FFFFFF" fill-opacity="1.000000" fill-rule="nonzero"/>
			</mask>
			<g mask="url(#mask2_249)">
				<path id="path" d="M544.53 259.27C544.53 217.83 533.67 177.12 513.03 141.2L307.53 259.27L544.53 259.27Z" fill="#00A91A" fill-opacity="1.000000" fill-rule="nonzero"/>
				<path id="path" d="M513.03 141.2L307.53 259.27L544.53 259.27C544.53 217.83 533.67 177.12 513.03 141.2Z" stroke="#FFFFFF" stroke-opacity="1.000000" stroke-width="10.000000"/>
			</g>
		</g>
	</g>
	<g clip-path="url(#clip2_216)">
		<mask id="mask2_219" mask-type="alpha" maskUnits="userSpaceOnUse" x="95.538574" y="45.271484" width="425.000000" height="213.500000">
			<path id="path" d="M520.53 258.77C520.53 202.14 498.15 147.84 458.29 107.8C418.44 67.76 364.39 45.27 308.03 45.27C251.68 45.27 197.63 67.76 157.77 107.8C117.92 147.84 95.53 202.14 95.53 258.77L308.03 258.77L520.53 258.77Z" fill="#FFFFFF" fill-opacity="1.000000" fill-rule="nonzero"/>
		</mask>
		<g mask="url(#mask2_219)">
			<path id="path" d="M520.53 258.77C520.53 202.14 498.15 147.84 458.29 107.8C418.44 67.76 364.39 45.27 308.03 45.27C251.68 45.27 197.63 67.76 157.77 107.8C117.92 147.84 95.53 202.14 95.53 258.77L308.03 258.77L520.53 258.77Z" fill="url(#paint_linear_2_218_0)" fill-opacity="1.000000" fill-rule="nonzero"/>
			<path id="path" d="M458.29 107.8C418.44 67.76 364.39 45.27 308.03 45.27C251.68 45.27 197.63 67.76 157.77 107.8C117.92 147.84 95.53 202.14 95.53 258.77L308.03 258.77L520.53 258.77C520.53 202.14 498.15 147.84 458.29 107.8Z" stroke="#FFFFFF" stroke-opacity="1.000000" stroke-width="10.000000"/>
		</g>
		<g clip-path="url(#clip2_300)">
			<rect id="rect" x="99.454193" y="238.958923" width="13.944921" height="1.163811" fill="#FFFFFF" fill-opacity="1.000000"/>
			<rect id="rect" x="105.367004" y="197.837814" width="13.915975" height="1.166354" transform="rotate(16.0008 105.367004 197.837814)" fill="#FFFFFF" fill-opacity="1.000000"/>
			<rect id="rect" x="100.396973" y="224.971115" width="13.939198" height="1.164315" transform="rotate(7.03248 100.396973 224.971115)" fill="#FFFFFF" fill-opacity="1.000000"/>
			<rect id="rect" x="109.402008" y="184.647690" width="13.908654" height="1.166995" transform="rotate(17.9783 109.402008 184.647690)" fill="#FFFFFF" fill-opacity="1.000000"/>
			<rect id="rect" x="102.492065" y="210.639862" width="13.929325" height="1.165183" transform="rotate(11.6645 102.492065 210.639862)" fill="#FFFFFF" fill-opacity="1.000000"/>
			<rect id="rect" x="114.771698" y="171.120346" width="13.888660" height="1.168743" transform="rotate(22.6341 114.771698 171.120346)" fill="#FFFFFF" fill-opacity="1.000000"/>
			<rect id="rect" x="121.732056" y="157.829773" width="13.865097" height="1.170797" transform="rotate(27.3217 121.732056 157.829773)" fill="#FFFFFF" fill-opacity="1.000000"/>
			<rect id="rect" x="127.935852" y="147.405716" width="13.862420" height="1.171030" transform="rotate(27.8202 127.935852 147.405716)" fill="#FFFFFF" fill-opacity="1.000000"/>
			<rect id="rect" x="212.849167" y="69.349854" width="13.670531" height="1.187487" transform="rotate(59.3247 212.849167 69.349854)" fill="#FFFFFF" fill-opacity="1.000000"/>
			<rect id="rect" x="250.785522" y="54.559357" width="13.598326" height="1.193563" transform="rotate(76.0481 250.785522 54.559357)" fill="#FFFFFF" fill-opacity="1.000000"/>
			<rect id="rect" x="224.170013" y="63.940689" width="13.633487" height="1.190612" transform="rotate(66.6608 224.170013 63.940689)" fill="#FFFFFF" fill-opacity="1.000000"/>
			<rect id="rect" x="264.527832" y="51.355911" width="13.592750" height="1.194030" transform="rotate(78.1189 264.527832 51.355911)" fill="#FFFFFF" fill-opacity="1.000000"/>
			<rect id="rect" x="237.958923" y="58.534943" width="13.613406" height="1.192299" transform="rotate(71.507 237.958923 58.534943)" fill="#FFFFFF" fill-opacity="1.000000"/>
			<rect id="rect" x="279.247498" y="49.119568" width="13.583025" height="1.194842" transform="rotate(82.9905 279.247498 49.119568)" fill="#FFFFFF" fill-opacity="1.000000"/>
			<rect id="rect" x="294.550110" y="46.930481" width="13.578252" height="1.195240" transform="rotate(87.8854 294.550110 46.930481)" fill="#FFFFFF" fill-opacity="1.000000"/>
			<rect id="rect" x="306.925720" y="46.930481" width="13.578043" height="1.195258" transform="rotate(88.405 306.925720 46.930481)" fill="#FFFFFF" fill-opacity="1.000000"/>
			<rect id="rect" x="420.833038" y="79.810165" width="13.671812" height="1.187380" transform="rotate(120.904 420.833038 79.810165)" fill="#FFFFFF" fill-opacity="1.000000"/>
			<rect id="rect" x="454.342712" y="105.492935" width="13.773120" height="1.178747" transform="rotate(137.408 454.342712 105.492935)" fill="#FFFFFF" fill-opacity="1.000000"/>
			<rect id="rect" x="432.767792" y="87.650604" width="13.714719" height="1.183739" transform="rotate(128.196 432.767792 87.650604)" fill="#FFFFFF" fill-opacity="1.000000"/>
			<rect id="rect" x="464.022675" y="115.520294" width="13.785994" height="1.177641" transform="rotate(139.424 464.022675 115.520294)" fill="#FFFFFF" fill-opacity="1.000000"/>
			<rect id="rect" x="444.434204" y="96.624939" width="13.744697" height="1.181182" transform="rotate(132.968 444.434204 96.624939)" fill="#FFFFFF" fill-opacity="1.000000"/>
			<rect id="rect" x="473.323395" y="126.850403" width="13.815638" height="1.175085" transform="rotate(144.146 473.323395 126.850403)" fill="#FFFFFF" fill-opacity="1.000000"/>
			<rect id="rect" x="481.602814" y="139.404984" width="13.843873" height="1.172642" transform="rotate(148.866 481.602814 139.404984)" fill="#FFFFFF" fill-opacity="1.000000"/>
			<rect id="rect" x="487.725067" y="149.872620" width="13.846747" height="1.172392" transform="rotate(149.365 487.725067 149.872620)" fill="#FFFFFF" fill-opacity="1.000000"/>
			<rect id="rect" x="133.538208" y="138.766785" width="13.849645" height="1.172140" transform="rotate(30.1243 133.538208 138.766785)" fill="#FFFFFF" fill-opacity="1.000000"/>
			<rect id="rect" x="160.238983" y="106.391083" width="13.748467" height="1.180859" transform="rotate(46.44 160.238983 106.391083)" fill="#FFFFFF" fill-opacity="1.000000"/>
			<rect id="rect" x="141.701279" y="127.222717" width="13.806828" height="1.175845" transform="rotate(37.2736 141.701279 127.222717)" fill="#FFFFFF" fill-opacity="1.000000"/>
			<rect id="rect" x="170.632904" y="97.066406" width="13.735578" height="1.181960" transform="rotate(48.4667 170.632904 97.066406)" fill="#FFFFFF" fill-opacity="1.000000"/>
			<rect id="rect" x="151.032257" y="115.953735" width="13.776888" height="1.178423" transform="rotate(42.002 151.032257 115.953735)" fill="#FFFFFF" fill-opacity="1.000000"/>
			<rect id="rect" x="182.361572" y="88.123886" width="13.705895" height="1.184489" transform="rotate(53.2443 182.361572 88.123886)" fill="#FFFFFF" fill-opacity="1.000000"/>
			<rect id="rect" x="194.109634" y="79.129242" width="13.677599" height="1.186890" transform="rotate(58.0599 194.109634 79.129242)" fill="#FFFFFF" fill-opacity="1.000000"/>
			<rect id="rect" x="203.277466" y="73.697968" width="13.674722" height="1.187133" transform="rotate(58.5721 203.277466 73.697968)" fill="#FFFFFF" fill-opacity="1.000000"/>
			<rect id="rect" x="317.409363" y="47.679871" width="13.577841" height="1.195274" transform="rotate(90.8045 317.409363 47.679871)" fill="#FFFFFF" fill-opacity="1.000000"/>
			<rect id="rect" x="360.114075" y="53.869049" width="13.610264" height="1.192562" transform="rotate(107.63 360.114075 53.869049)" fill="#FFFFFF" fill-opacity="1.000000"/>
			<rect id="rect" x="331.764404" y="48.792786" width="13.584985" height="1.194678" transform="rotate(98.2175 331.764404 48.792786)" fill="#FFFFFF" fill-opacity="1.000000"/>
			<rect id="rect" x="372.925903" y="57.399689" width="13.618033" height="1.191912" transform="rotate(109.695 372.925903 57.399689)" fill="#FFFFFF" fill-opacity="1.000000"/>
			<rect id="rect" x="346.453308" y="51.023544" width="13.595896" height="1.193766" transform="rotate(103.087 346.453308 51.023544)" fill="#FFFFFF" fill-opacity="1.000000"/>
			<rect id="rect" x="386.706726" y="62.532623" width="13.639045" height="1.190146" transform="rotate(114.538 386.706726 62.532623)" fill="#FFFFFF" fill-opacity="1.000000"/>
			<rect id="rect" x="399.653503" y="68.438446" width="13.663511" height="1.188082" transform="rotate(119.382 399.653503 68.438446)" fill="#FFFFFF" fill-opacity="1.000000"/>
			<rect id="rect" x="410.916565" y="74.266495" width="13.666277" height="1.187848" transform="rotate(119.895 410.916565 74.266495)" fill="#FFFFFF" fill-opacity="1.000000"/>
			<rect id="rect" x="492.585968" y="158.930267" width="13.859660" height="1.171271" transform="rotate(151.67 492.585968 158.930267)" fill="#FFFFFF" fill-opacity="1.000000"/>
			<rect id="rect" x="507.864746" y="197.695633" width="13.927781" height="1.165319" transform="rotate(167.759 507.864746 197.695633)" fill="#FFFFFF" fill-opacity="1.000000"/>
			<rect id="rect" x="498.716217" y="171.614639" width="13.895082" height="1.168184" transform="rotate(158.769 498.716217 171.614639)" fill="#FFFFFF" fill-opacity="1.000000"/>
			<rect id="rect" x="510.906860" y="211.132324" width="13.932798" height="1.164878" transform="rotate(169.731 510.906860 211.132324)" fill="#FFFFFF" fill-opacity="1.000000"/>
			<rect id="rect" x="504.016022" y="185.138138" width="13.913914" height="1.166535" transform="rotate(163.421 504.016022 185.138138)" fill="#FFFFFF" fill-opacity="1.000000"/>
			<rect id="rect" x="512.936157" y="225.501053" width="13.941241" height="1.164136" transform="rotate(174.361 512.936157 225.501053)" fill="#FFFFFF" fill-opacity="1.000000"/>
			<rect id="rect" x="515.004028" y="239.915253" width="13.944819" height="1.163821" transform="rotate(179.004 515.004028 239.915253)" fill="#FFFFFF" fill-opacity="1.000000"/>
			<rect id="rect" x="515.085449" y="252.094894" width="13.944900" height="1.163814" transform="rotate(179.497 515.085449 252.094894)" fill="#FFFFFF" fill-opacity="1.000000"/>
		</g>
	</g>
	<path id="МОГЛО БЫТЬ ЛУЧШЕ" d="M374.39 0C377.74 0 380.17 2.58 380.17 6.72C380.17 10.86 377.74 13.45 374.39 13.45C371.04 13.45 368.61 10.86 368.61 6.72C368.61 2.58 371.04 0 374.39 0ZM411.29 0C414.63 0 417.06 2.58 417.06 6.72C417.06 10.86 414.63 13.45 411.29 13.45C407.94 13.45 405.51 10.86 405.51 6.72C405.51 2.58 407.94 0 411.29 0ZM353.12 13.27L353.12 0.18L355.01 0.18L359.46 11.04L359.62 11.04L364.06 0.18L365.95 0.18L365.95 13.27L364.47 13.27L364.47 3.32L364.34 3.32L360.25 13.27L358.82 13.27L354.73 3.32L354.6 3.32L354.6 13.27L353.12 13.27ZM382.83 0.18L390.73 0.18L390.73 1.58L384.41 1.58L384.41 13.27L382.83 13.27L382.83 0.18ZM392.54 13.27L392.06 13.27L392.06 11.81L392.44 11.81C394.08 11.81 394.5 10.35 394.64 6.49L394.87 0.18L402.85 0.18L402.85 13.27L401.26 13.27L401.26 1.58L396.38 1.58L396.17 6.8C396.02 10.92 395.44 13.27 392.54 13.27ZM429.7 13.27L424.79 13.27L424.79 0.18L432.69 0.18L432.69 1.58L426.37 1.58L426.37 5.67L429.7 5.67C432.51 5.67 434.04 7.13 434.04 9.4C434.04 11.68 432.51 13.27 429.7 13.27ZM438.23 0.18L438.23 5.67L441.56 5.67C444.37 5.67 445.91 7.13 445.91 9.4C445.91 11.68 444.37 13.27 441.56 13.27L436.65 13.27L436.65 0.18L438.23 0.18ZM447.19 0.18L448.77 0.18L448.77 13.27L447.19 13.27L447.19 0.18ZM455.34 1.58L451.23 1.58L451.23 0.18L461.04 0.18L461.04 1.58L456.92 1.58L456.92 13.27L455.34 13.27L455.34 1.58ZM465.08 0.18L465.08 5.67L468.41 5.67C471.22 5.67 472.75 7.13 472.75 9.4C472.75 11.68 471.22 13.27 468.41 13.27L463.5 13.27L463.5 0.18L465.08 0.18ZM479.68 13.27L479.2 13.27L479.2 11.81L479.58 11.81C481.21 11.81 481.64 10.35 481.78 6.49L482.01 0.18L489.99 0.18L489.99 13.27L488.4 13.27L488.4 1.58L483.52 1.58L483.31 6.8C483.15 10.92 482.57 13.27 479.68 13.27ZM494.69 13.45L493.85 13.45L493.85 11.96L494.66 11.96C495.61 11.96 496.07 11.32 496.35 10.68L496.56 10.2L492.03 0.18L493.75 0.18L497.35 8.31L500.65 0.18L502.33 0.18L497.81 11.14C497.27 12.37 496.69 13.45 494.69 13.45ZM504.51 4.55L504.51 0.18L506.1 0.18L506.1 4.55C506.1 6.49 507.17 7.08 508.86 7.08C510.18 7.08 511.37 6.87 512.49 6.55L512.49 0.18L514.07 0.18L514.07 13.27L512.49 13.27L512.49 7.99C511.42 8.31 510.44 8.51 508.86 8.51C506.14 8.51 504.51 7.43 504.51 4.55ZM517.24 13.27L517.24 0.18L518.82 0.18L518.82 11.81L523.43 11.81L523.43 0.18L525.01 0.18L525.01 11.81L529.62 11.81L529.62 0.18L531.2 0.18L531.2 13.27L517.24 13.27ZM542.38 13.27L534.37 13.27L534.37 0.18L542.27 0.18L542.27 1.58L535.96 1.58L535.96 6.01L541.86 6.01L541.86 7.41L535.96 7.41L535.96 11.86L542.38 11.86L542.38 13.27ZM374.39 11.96C376.77 11.96 378.64 10.12 378.64 6.72C378.64 3.32 376.77 1.48 374.39 1.48C372.01 1.48 370.15 3.32 370.15 6.72C370.15 10.12 372.01 11.96 374.39 11.96ZM411.29 11.96C413.66 11.96 415.53 10.12 415.53 6.72C415.53 3.32 413.66 1.48 411.29 1.48C408.91 1.48 407.04 3.32 407.04 6.72C407.04 10.12 408.91 11.96 411.29 11.96ZM426.37 7.08L426.37 11.89L429.7 11.89C431.49 11.89 432.48 10.66 432.48 9.38C432.48 8.13 431.49 7.08 429.7 7.08L426.37 7.08ZM441.56 7.08L438.23 7.08L438.23 11.89L441.56 11.89C443.35 11.89 444.35 10.66 444.35 9.38C444.35 8.13 443.35 7.08 441.56 7.08ZM468.41 7.08L465.08 7.08L465.08 11.89L468.41 11.89C470.2 11.89 471.19 10.66 471.19 9.38C471.19 8.13 470.2 7.08 468.41 7.08Z" fill="#000000" fill-opacity="1.000000" fill-rule="evenodd"/>
	<path id="ХОРОШО" d="M505.74 76C509.09 76 511.52 78.58 511.52 82.72C511.52 86.86 509.09 89.45 505.74 89.45C502.39 89.45 499.96 86.86 499.96 82.72C499.96 78.58 502.39 76 505.74 76ZM530.87 76C534.22 76 536.65 78.58 536.65 82.72C536.65 86.86 534.22 89.45 530.87 89.45C527.52 89.45 525.09 86.86 525.09 82.72C525.09 78.58 527.52 76 530.87 76ZM561.71 76C565.05 76 567.49 78.58 567.49 82.72C567.49 86.86 565.05 89.45 561.71 89.45C558.36 89.45 555.93 86.86 555.93 82.72C555.93 78.58 558.36 76 561.71 76ZM488.02 76.18L489.89 76.18L493.26 81.62L493.37 81.62L496.74 76.18L498.6 76.18L494.49 82.72L498.6 89.27L496.74 89.27L493.37 83.92L493.26 83.92L489.89 89.27L488.02 89.27L492.24 82.72L488.02 76.18ZM515.76 89.27L514.18 89.27L514.18 76.18L518.6 76.18C521.67 76.18 523.05 78 523.05 80.32C523.05 82.63 521.67 84.49 518.62 84.49L515.76 84.49L515.76 89.27ZM539.31 89.27L539.31 76.18L540.89 76.18L540.89 87.81L545.5 87.81L545.5 76.18L547.08 76.18L547.08 87.81L551.69 87.81L551.69 76.18L553.27 76.18L553.27 89.27L539.31 89.27ZM505.74 87.96C508.11 87.96 509.98 86.12 509.98 82.72C509.98 79.32 508.11 77.48 505.74 77.48C503.36 77.48 501.49 79.32 501.49 82.72C501.49 86.12 503.36 87.96 505.74 87.96ZM530.87 87.96C533.25 87.96 535.12 86.12 535.12 82.72C535.12 79.32 533.25 77.48 530.87 77.48C528.49 77.48 526.63 79.32 526.63 82.72C526.63 86.12 528.49 87.96 530.87 87.96ZM561.71 87.96C564.08 87.96 565.95 86.12 565.95 82.72C565.95 79.32 564.08 77.48 561.71 77.48C559.33 77.48 557.46 79.32 557.46 82.72C557.46 86.12 559.33 87.96 561.71 87.96ZM515.76 77.58L515.76 83.08L518.57 83.08C520.68 83.08 521.49 81.89 521.49 80.32C521.49 78.75 520.68 77.58 518.55 77.58L515.76 77.58Z" fill="#000000" fill-opacity="1.000000" fill-rule="evenodd"/>
	<path id="ОТЛИЧНО" d="M551.39 193C554.73 193 557.16 195.58 557.16 199.72C557.16 203.86 554.73 206.45 551.39 206.45C548.04 206.45 545.61 203.86 545.61 199.72C545.61 195.58 548.04 193 551.39 193ZM628.68 193C632.03 193 634.46 195.58 634.46 199.72C634.46 203.86 632.03 206.45 628.68 206.45C625.33 206.45 622.9 203.86 622.9 199.72C622.9 195.58 625.33 193 628.68 193ZM562.69 194.58L558.57 194.58L558.57 193.18L568.39 193.18L568.39 194.58L564.27 194.58L564.27 206.27L562.69 206.27L562.69 194.58ZM570.2 206.27L569.72 206.27L569.72 204.81L570.1 204.81C571.74 204.81 572.16 203.35 572.3 199.49L572.53 193.18L580.51 193.18L580.51 206.27L578.92 206.27L578.92 194.58L574.04 194.58L573.83 199.8C573.68 203.92 573.09 206.27 570.2 206.27ZM583.68 206.27L583.68 193.18L585.24 193.18L585.24 203.48L585.37 203.48L592.53 193.18L594.06 193.18L594.06 206.27L592.47 206.27L592.47 195.99L592.35 195.99L585.21 206.27L583.68 206.27ZM597.36 197.55L597.36 193.18L598.95 193.18L598.95 197.55C598.95 199.49 600.02 200.08 601.7 200.08C603.03 200.08 604.22 199.87 605.33 199.55L605.33 193.18L606.92 193.18L606.92 206.27L605.33 206.27L605.33 200.99C604.27 201.31 603.29 201.51 601.7 201.51C598.99 201.51 597.36 200.44 597.36 197.55ZM611.67 206.27L610.09 206.27L610.09 193.18L611.67 193.18L611.67 199.01L618.66 199.01L618.66 193.18L620.24 193.18L620.24 206.27L618.66 206.27L618.66 200.41L611.67 200.41L611.67 206.27ZM551.39 204.96C553.76 204.96 555.63 203.12 555.63 199.72C555.63 196.32 553.76 194.48 551.39 194.48C549.01 194.48 547.14 196.32 547.14 199.72C547.14 203.12 549.01 204.96 551.39 204.96ZM628.68 204.96C631.06 204.96 632.92 203.12 632.92 199.72C632.92 196.32 631.06 194.48 628.68 194.48C626.3 194.48 624.43 196.32 624.43 199.72C624.43 203.12 626.3 204.96 628.68 204.96Z" fill="#000000" fill-opacity="1.000000" fill-rule="evenodd"/>
	<path id="ПЛОХО" d="M102.21 76C105.56 76 107.99 78.58 107.99 82.72C107.99 86.86 105.56 89.45 102.21 89.45C98.86 89.45 96.43 86.86 96.43 82.72C96.43 78.58 98.86 76 102.21 76ZM127.06 76C130.41 76 132.84 78.58 132.84 82.72C132.84 86.86 130.41 89.45 127.06 89.45C123.71 89.45 121.28 86.86 121.28 82.72C121.28 78.58 123.71 76 127.06 76ZM71.15 76.18L80.91 76.18L80.91 89.27L79.32 89.27L79.32 77.58L72.73 77.58L72.73 89.27L71.15 89.27L71.15 76.18ZM83.47 89.27L82.98 89.27L82.98 87.81L83.37 87.81C85 87.81 85.42 86.35 85.56 82.49L85.8 76.18L93.77 76.18L93.77 89.27L92.19 89.27L92.19 77.58L87.3 77.58L87.1 82.8C86.94 86.92 86.36 89.27 83.47 89.27ZM109.35 76.18L111.21 76.18L114.58 81.62L114.69 81.62L118.06 76.18L119.93 76.18L115.81 82.72L119.93 89.27L118.06 89.27L114.69 83.92L114.58 83.92L111.21 89.27L109.35 89.27L113.56 82.72L109.35 76.18ZM102.21 87.96C104.59 87.96 106.45 86.12 106.45 82.72C106.45 79.32 104.59 77.48 102.21 77.48C99.83 77.48 97.96 79.32 97.96 82.72C97.96 86.12 99.83 87.96 102.21 87.96ZM127.06 87.96C129.44 87.96 131.31 86.12 131.31 82.72C131.31 79.32 129.44 77.48 127.06 77.48C124.68 77.48 122.82 79.32 122.82 82.72C122.82 86.12 124.68 87.96 127.06 87.96Z" fill="#000000" fill-opacity="1.000000" fill-rule="evenodd"/>
	<path id="АХТУНГ" d="M2.97 202.56L1.66 206.27L0 206.27L4.8 193.18L6.44 193.18L11.25 206.27L9.58 206.27L8.27 202.56L2.97 202.56ZM12.19 193.18L14.06 193.18L17.43 198.62L17.54 198.62L20.91 193.18L22.77 193.18L18.66 199.72L22.77 206.27L20.91 206.27L17.54 200.92L17.43 200.92L14.06 206.27L12.19 206.27L16.41 199.72L12.19 193.18ZM28.25 194.58L24.13 194.58L24.13 193.18L33.95 193.18L33.95 194.58L29.83 194.58L29.83 206.27L28.25 206.27L28.25 194.58ZM37.94 206.45L37.09 206.45L37.09 204.96L37.91 204.96C38.86 204.96 39.32 204.32 39.6 203.68L39.81 203.2L35.28 193.18L36.99 193.18L40.6 201.31L43.89 193.18L45.58 193.18L41.06 204.14C40.52 205.37 39.93 206.45 37.94 206.45ZM49.21 206.27L47.63 206.27L47.63 193.18L49.21 193.18L49.21 199.01L56.19 199.01L56.19 193.18L57.78 193.18L57.78 206.27L56.19 206.27L56.19 200.41L49.21 200.41L49.21 206.27ZM60.95 193.18L68.85 193.18L68.85 194.58L62.53 194.58L62.53 206.27L60.95 206.27L60.95 193.18ZM5.57 195.25L3.47 201.15L7.76 201.15L5.67 195.25L5.57 195.25Z" fill="#000000" fill-opacity="1.000000" fill-rule="evenodd"/>
	<path id="НЕ ХОРОШО" d="M217.89 0C221.23 0 223.66 2.58 223.66 6.72C223.66 10.86 221.23 13.45 217.89 13.45C214.54 13.45 212.11 10.86 212.11 6.72C212.11 2.58 214.54 0 217.89 0ZM243.02 0C246.37 0 248.8 2.58 248.8 6.72C248.8 10.86 246.37 13.45 243.02 13.45C239.67 13.45 237.24 10.86 237.24 6.72C237.24 2.58 239.67 0 243.02 0ZM273.85 0C277.2 0 279.63 2.58 279.63 6.72C279.63 10.86 277.2 13.45 273.85 13.45C270.51 13.45 268.07 10.86 268.07 6.72C268.07 2.58 270.51 0 273.85 0ZM173.7 13.27L172.12 13.27L172.12 0.18L173.7 0.18L173.7 6.01L180.69 6.01L180.69 0.18L182.27 0.18L182.27 13.27L180.69 13.27L180.69 7.41L173.7 7.41L173.7 13.27ZM193.44 13.27L185.44 13.27L185.44 0.18L193.34 0.18L193.34 1.58L187.02 1.58L187.02 6.01L192.93 6.01L192.93 7.41L187.02 7.41L187.02 11.86L193.44 11.86L193.44 13.27ZM200.17 0.18L202.03 0.18L205.41 5.62L205.51 5.62L208.89 0.18L210.75 0.18L206.64 6.72L210.75 13.27L208.89 13.27L205.51 7.92L205.41 7.92L202.03 13.27L200.17 13.27L204.39 6.72L200.17 0.18ZM227.91 13.27L226.33 13.27L226.33 0.18L230.75 0.18C233.82 0.18 235.2 2 235.2 4.32C235.2 6.63 233.82 8.49 230.77 8.49L227.91 8.49L227.91 13.27ZM251.46 13.27L251.46 0.18L253.04 0.18L253.04 11.81L257.65 11.81L257.65 0.18L259.23 0.18L259.23 11.81L263.83 11.81L263.83 0.18L265.42 0.18L265.42 13.27L251.46 13.27ZM217.89 11.96C220.26 11.96 222.13 10.12 222.13 6.72C222.13 3.32 220.26 1.48 217.89 1.48C215.51 1.48 213.64 3.32 213.64 6.72C213.64 10.12 215.51 11.96 217.89 11.96ZM243.02 11.96C245.4 11.96 247.26 10.12 247.26 6.72C247.26 3.32 245.4 1.48 243.02 1.48C240.64 1.48 238.77 3.32 238.77 6.72C238.77 10.12 240.64 11.96 243.02 11.96ZM273.85 11.96C276.23 11.96 278.1 10.12 278.1 6.72C278.1 3.32 276.23 1.48 273.85 1.48C271.48 1.48 269.61 3.32 269.61 6.72C269.61 10.12 271.48 11.96 273.85 11.96ZM227.91 1.58L227.91 7.08L230.72 7.08C232.82 7.08 233.64 5.89 233.64 4.32C233.64 2.75 232.82 1.58 230.7 1.58L227.91 1.58Z" fill="#000000" fill-opacity="1.000000" fill-rule="evenodd"/>
</svg>
